<?xml version="1.0" standalone="no"?>
<!DOCTYPE svg PUBLIC "-//W3C//DTD SVG 20010904//EN"
 "http://www.w3.org/TR/2001/REC-SVG-20010904/DTD/svg10.dtd">
<svg version="1.0" xmlns="http://www.w3.org/2000/svg"
 width="512.000000pt" height="512.000000pt" viewBox="0 0 512.000000 512.000000"
 preserveAspectRatio="xMidYMid meet">

<g transform="translate(0.000000,512.000000) scale(0.100000,-0.100000)"
fill="#437ff9" stroke="none">
<path d="M306 4499 c-62 -15 -153 -68 -197 -116 -22 -24 -55 -74 -72 -111
l-32 -67 -3 -1415 c-1 -792 1 -1410 6 -1405 5 6 73 112 150 237 l142 228 0
674 c0 458 4 692 11 728 36 171 175 310 347 347 74 16 2708 16 2784 0 87 -18
158 -58 223 -123 99 -99 135 -199 135 -371 l0 -95 151 0 150 0 -3 298 -3 297
-32 67 c-44 93 -100 151 -191 196 l-76 37 -947 3 -947 2 -3 148 c-4 148 -4
148 -41 224 -45 91 -103 147 -196 191 l-67 32 -625 2 c-357 1 -642 -3 -664 -8z"/>
<path d="M678 3289 c-23 -12 -46 -35 -58 -59 -19 -38 -20 -55 -18 -466 l3
-427 155 249 c162 260 211 321 296 366 112 60 63 58 1306 58 l1138 0 0 90 c0
112 -20 159 -80 190 -39 20 -56 20 -1372 20 -1307 -1 -1334 -1 -1370 -21z"/>
<path d="M1215 2696 c-16 -7 -39 -24 -51 -37 -22 -24 -1117 -1778 -1147 -1836
-36 -68 -6 -158 63 -193 39 -20 55 -20 1970 -20 1890 0 1932 0 1969 19 33 17
102 117 546 788 279 422 518 788 529 813 16 34 21 65 21 130 0 76 -3 93 -33
152 -38 77 -92 130 -171 167 l-56 26 -1805 2 c-1490 2 -1810 0 -1835 -11z"/>
</g>
</svg>
